g Base.001
v 4.991221 -0.3762426 0.8827739
v -1.813971 0.1849298 0.8827739
v 4.991221 0.1849298 0.8827739
v -1.813971 -0.3762426 0.8827739
v 4.991221 0.1849298 -0.8827696
v 4.991221 0.1849298 0.8827739
v -1.813971 0.1849298 0.8827739
v -1.813971 0.1849298 -0.8827696
v -1.813971 0.1849298 -0.8827696
v 4.991221 -0.3762426 -0.8827696
v 4.991221 0.1849298 -0.8827696
v -1.813971 -0.3762426 -0.8827696
v -1.813971 -0.3762426 0.8827739
v -1.813971 -0.3762426 -0.8827696
v -1.813971 0.1849298 -0.8827696
v -1.813971 0.1849298 0.8827739
v 4.991221 -0.3762426 -0.8827696
v 4.991221 -0.3762426 0.8827739
v 4.991221 0.1849298 0.8827739
v 4.991221 0.1849298 -0.8827696
vt 0.167828 0.7500001
vt 0.167828 0.7500001
vt 0.167828 0.7500001
vt 0.167828 0.7500001
vt 0.7013991 0.2499992
vt 0.7013991 0.2499992
vt 0.7013991 0.2499992
vt 0.7013991 0.2499992
vt 0.3916003 0.7500001
vt 0.3916003 0.7500001
vt 0.3916003 0.7500001
vt 0.3916003 0.7500001
vt 0.6153725 0.7337968
vt 0.6153725 0.7337968
vt 0.6153725 0.7337968
vt 0.6153725 0.7337968
vt 0.7272587 0.7337968
vt 0.7272587 0.7337968
vt 0.7272587 0.7337968
vt 0.7272587 0.7337968
vn -0.0009775162 0.0009775162 0.999999
vn -0.0009775162 0.0009775162 0.999999
vn -0.0009775162 0.0009775162 0.999999
vn -0.0009775162 0.0009775162 0.999999
vn -0.0009775162 0.9999995 0
vn -0.0009775162 0.9999995 0
vn -0.0009775162 0.9999995 0
vn -0.0009775162 0.9999995 0
vn -0.0009775162 0.0009775162 -0.999999
vn -0.0009775162 0.0009775162 -0.999999
vn -0.0009775162 0.0009775162 -0.999999
vn -0.0009775162 0.0009775162 -0.999999
vn -0.9999995 0.0009775162 0
vn -0.9999995 0.0009775162 0
vn -0.9999995 0.0009775162 0
vn -0.9999995 0.0009775162 0
vn 0.9999995 0.0009775162 0
vn 0.9999995 0.0009775162 0
vn 0.9999995 0.0009775162 0
vn 0.9999995 0.0009775162 0
g Base.001_0
f 3/3/3 2/2/2 1/1/1
f 2/2/2 4/4/4 1/1/1
f 7/7/7 6/6/6 5/5/5
f 8/8/8 7/7/7 5/5/5
f 11/11/11 10/10/10 9/9/9
f 9/9/9 10/10/10 12/12/12
f 15/15/15 14/14/14 13/13/13
f 16/16/16 15/15/15 13/13/13
f 19/19/19 18/18/18 17/17/17
f 20/20/20 19/19/19 17/17/17
